<svg width="32" height="171" viewBox="0 0 32 171" fill="none" xmlns="http://www.w3.org/2000/svg">
<path d="M13.3398 166.834L13.3398 7.62939e-05L17.9243 7.60936e-05L17.9244 166.834L13.3398 166.834Z" fill="black"/>
<path d="M31.2664 152.252C31.2664 152.717 31.1241 153.188 30.8315 153.595L20.2473 168.203C19.1088 169.778 17.4505 170.682 15.7013 170.683C13.9519 170.688 12.2904 169.789 11.1438 168.224L0.444138 153.602C-0.305823 152.575 -0.0835785 151.144 0.941437 150.399C1.96166 149.652 3.39605 149.874 4.14441 150.894L14.8441 165.517C15.1175 165.891 15.4245 166.104 15.6916 166.102C15.957 166.102 16.264 165.889 16.5359 165.515L27.1201 150.907C27.8621 149.882 29.2949 149.654 30.3199 150.395C30.9371 150.842 31.2665 151.54 31.2665 152.252L31.2664 152.252Z" fill="black"/>
</svg>
