<svg width="196" height="196" viewBox="0 0 196 196" fill="none" xmlns="http://www.w3.org/2000/svg">
<path d="M91.7178 27L91.6592 25.8867L93.4463 25.4473C93.4463 25.3105 93.4463 25.1055 93.4463 24.832C93.4658 24.5391 93.4756 24.1973 93.4756 23.8066C93.4756 23.416 93.4756 22.9961 93.4756 22.5469C93.4951 22.0977 93.5049 21.6387 93.5049 21.1699V15.6621C93.5049 14.7637 93.4951 14.0117 93.4756 13.4062C93.4756 12.7812 93.4658 12.3027 93.4463 11.9707C93.4463 11.6191 93.4268 11.4043 93.3877 11.3262L91.5713 10.916L91.6592 9.80273L98.0752 9.80273C99.9111 9.80273 101.308 10.1641 102.265 10.8867C103.241 11.5898 103.729 12.6348 103.729 14.0215C103.729 14.9785 103.466 15.8379 102.938 16.5996C102.411 17.3418 101.679 17.9277 100.741 18.3574C99.8037 18.7871 98.7197 19.002 97.4893 19.002L95.6143 19.002V17.6836L97.2842 17.6836C98.4951 17.6836 99.4326 17.3809 100.097 16.7754C100.78 16.1699 101.122 15.3301 101.122 14.2559C101.122 13.2207 100.829 12.4395 100.243 11.9121C99.6572 11.3652 98.8174 11.0918 97.7236 11.0918H96.0244C96.0049 11.1504 95.9854 11.2383 95.9658 11.3555C95.9658 11.4531 95.9658 11.6387 95.9658 11.9121C95.9658 12.1855 95.9658 12.5859 95.9658 13.1133C95.9658 13.6406 95.9658 14.3438 95.9658 15.2227V21.1699C95.9658 22.0098 95.9658 22.7129 95.9658 23.2793C95.9854 23.8457 96.0049 24.3047 96.0244 24.6562C96.0635 24.9883 96.0928 25.252 96.1123 25.4473L97.8408 25.8867L97.7529 27L91.7178 27ZM105.604 27.293C104.745 27.293 103.983 27.1367 103.319 26.8242C102.655 26.4922 102.011 25.9551 101.386 25.2129C100.761 24.4512 100.087 23.4258 99.3643 22.1367L97.3721 18.5039L99.5693 18.0059L102.733 22.6641C103.28 23.4648 103.769 24.1094 104.198 24.5977C104.647 25.0664 105.087 25.418 105.517 25.6523C105.946 25.8867 106.415 26.0527 106.923 26.1504L106.894 27.1758C106.698 27.2148 106.483 27.2441 106.249 27.2637C106.034 27.2832 105.819 27.293 105.604 27.293Z" fill="black"/>
<path d="M126.166 32.6519C125.645 32.4211 125.174 32.2271 124.753 32.0697C124.35 31.9183 123.963 31.7823 123.592 31.6616L114.035 28.5563L114.295 27.4704L116.149 27.6416C116.217 27.5608 116.305 27.3532 116.413 27.0188C116.541 26.6905 116.698 26.2384 116.885 25.6626C117.09 25.0928 117.326 24.3993 117.592 23.5819L119.294 18.3437C119.565 17.5078 119.785 16.7989 119.954 16.2171C120.147 15.6226 120.289 15.1552 120.379 14.8149C120.487 14.4805 120.535 14.2701 120.522 14.1838L118.921 13.2324L119.349 12.2007L128.293 15.1068C128.553 15.1913 128.822 15.2788 129.101 15.3694C129.404 15.4474 129.726 15.5314 130.066 15.6215C130.407 15.7115 130.757 15.8046 131.115 15.9007L130.478 19.7597L129.161 19.5473L129.001 16.9081C128.865 16.8227 128.704 16.7498 128.518 16.6894C128.338 16.6105 128.146 16.5378 127.942 16.4714L124.793 15.4484C124.441 15.3337 124.122 15.2404 123.837 15.1685C123.577 15.084 123.311 15.018 123.039 14.9707C123.015 15.045 122.936 15.2556 122.803 15.6025C122.694 15.9368 122.558 16.3239 122.395 16.7637C122.25 17.2095 122.105 17.6553 121.96 18.1011L119.516 25.6241C119.395 25.9956 119.271 26.3764 119.145 26.7665C119.042 27.144 118.943 27.4814 118.846 27.7786C118.768 28.0819 118.711 28.2892 118.675 28.4007C118.929 28.5037 119.192 28.6098 119.465 28.7189C119.756 28.8341 120.078 28.949 120.431 29.0636L123.134 29.9418C123.543 30.0746 123.877 30.1832 124.137 30.2677C124.403 30.3336 124.613 30.3815 124.768 30.4112C124.923 30.4409 125.05 30.4615 125.148 30.4731L127.457 28.2969L128.63 28.9551L126.166 32.6519ZM124.974 25.7958L125.255 23.7924C125.174 23.7251 125.026 23.6459 124.809 23.5549C124.592 23.4639 124.326 23.3671 124.01 23.2645L121.892 22.5765C121.651 22.498 121.388 22.4228 121.103 22.3509C120.818 22.2789 120.515 22.2009 120.193 22.1169L120.691 20.5844C121.001 20.7056 121.292 20.8207 121.565 20.9299C121.843 21.0204 122.103 21.1049 122.345 21.1833L124.462 21.8714C124.778 21.974 125.051 22.0522 125.279 22.1061C125.508 22.1599 125.672 22.1926 125.771 22.2043L126.73 20.3903L127.928 20.7796L126.172 26.1851L124.974 25.7958Z" fill="black"/>
<path d="M139.638 40.8173C138.959 40.3236 138.311 39.7201 137.694 39.0067C137.078 38.2934 136.638 37.6359 136.375 37.0343L138.478 33.8907L139.566 34.5364L138.697 37.128C138.893 37.6564 139.168 38.1581 139.523 38.6332C139.889 39.0926 140.333 39.5117 140.855 39.8905C141.645 40.4645 142.407 40.7284 143.14 40.6821C143.89 40.6472 144.5 40.3059 144.971 39.6581C145.373 39.105 145.54 38.5262 145.472 37.9217C145.416 37.3014 145.216 36.6618 144.874 36.0029C144.548 35.3554 144.182 34.6792 143.777 33.9744C143.388 33.281 143.045 32.5732 142.749 31.8511C142.48 31.1246 142.357 30.3959 142.381 29.665C142.417 28.9183 142.704 28.1736 143.244 27.4309C143.807 26.6567 144.508 26.1401 145.348 25.8812C146.199 25.6065 147.125 25.5788 148.124 25.798C149.139 26.0287 150.137 26.5 151.117 27.2118C151.527 27.5102 151.905 27.8209 152.25 28.1439C152.622 28.4625 152.945 28.7818 153.22 29.1019C153.494 29.422 153.72 29.7428 153.897 30.0644L151.934 33.1649L150.846 32.5192L151.628 30.0461C151.368 29.3742 150.835 28.7455 150.029 28.16C149.223 27.5745 148.432 27.3014 147.655 27.3405C146.906 27.3753 146.296 27.7166 145.825 28.3645C145.412 28.9333 145.233 29.5279 145.289 30.1482C145.361 30.78 145.555 31.4275 145.87 32.0908C146.2 32.7656 146.56 33.4496 146.95 34.143C147.355 34.8479 147.698 35.5556 147.978 36.2663C148.274 36.9885 148.41 37.715 148.386 38.4459C148.39 39.1725 148.133 39.8913 147.616 40.6024C147.065 41.3608 146.35 41.8796 145.472 42.1586C144.62 42.4332 143.681 42.4631 142.654 42.2482C141.639 42.0175 140.634 41.5405 139.638 40.8173Z" fill="black"/>
<path d="M164.429 39.3803L168.079 44.405L167.23 45.1305L165.807 43.9193C165.744 43.9652 165.596 44.0607 165.363 44.2056C165.13 44.3505 164.771 44.5873 164.286 44.9159C163.812 45.2603 163.14 45.7482 162.271 46.3796L158.621 49.0315C157.637 49.7706 156.946 50.5141 156.548 51.262C156.161 52.0258 156.021 52.7796 156.127 53.5235C156.26 54.2717 156.591 55.0092 157.119 55.736C157.624 56.4313 158.202 56.9284 158.854 57.2274C159.533 57.5307 160.292 57.595 161.131 57.4202C161.97 57.2454 162.91 56.7792 163.953 56.0215L167.011 53.8001C167.722 53.2834 168.34 52.8221 168.866 52.4159C169.407 51.9983 169.846 51.6554 170.182 51.387C170.534 51.1071 170.746 50.917 170.818 50.8165L169.968 48.8991L170.921 48.3158L174.261 52.9139L173.412 53.6394L172.006 52.4519C171.959 52.4864 171.803 52.5875 171.539 52.7554C171.274 52.9233 170.86 53.2002 170.296 53.5862C169.758 53.9766 169.008 54.5219 168.044 55.2222L164.868 57.5297C163.541 58.494 162.29 59.0649 161.115 59.2424C159.94 59.4199 158.866 59.2708 157.893 58.795C156.931 58.335 156.094 57.6152 155.382 56.6356C154.131 54.9132 153.623 53.2178 153.86 51.5494C154.123 49.8852 155.116 48.4274 156.839 47.1761L160.773 44.3175C161.642 43.6861 162.308 43.1903 162.77 42.8301C163.249 42.4584 163.593 42.1843 163.803 42.0078C164.024 41.8471 164.152 41.7416 164.188 41.6914L163.493 39.9872L164.429 39.3803Z" fill="black"/>
<path d="M178.694 60.9397L180.26 65.76L168.815 75.9477L168.652 75.4462L183.864 76.8495L185.33 81.3633L184.299 81.7909L183.375 80.1811C183.109 80.247 182.614 80.3976 181.889 80.633C181.189 80.8809 180.434 81.147 179.623 81.4311L174.56 83.1993C173.637 83.5196 172.863 83.7917 172.238 84.0155C171.631 84.2332 171.144 84.4118 170.779 84.551C170.413 84.6903 170.141 84.7994 169.961 84.8784L170.151 86.6957L169.074 86.984L167.155 81.077L168.187 80.6494L169.101 82.2314C169.33 82.1775 169.593 82.1023 169.89 82.0058C170.188 81.9092 170.605 81.7734 171.144 81.5984C171.683 81.4233 172.414 81.1756 173.336 80.8553L183.21 77.5857L183.445 78.3101L165.623 76.6461L165.306 75.6709L178.72 63.673L178.955 64.3974L169.491 67.5034C167.949 68.0043 166.825 68.3695 166.119 68.5988C165.438 68.8407 165.017 68.9981 164.856 69.071L165.081 71.0924L163.995 71.3529L162.221 65.8917L163.253 65.4641L164.258 67.232C164.394 67.2084 164.639 67.1392 164.992 67.0245C165.351 66.9284 165.821 66.7961 166.403 66.6276C167.003 66.453 167.703 66.236 168.502 65.9765L174.046 64.2675C174.869 64.0205 175.612 63.7791 176.275 63.5432C176.962 63.3199 177.464 63.157 177.779 63.0544L177.617 61.228L178.694 60.9397Z" fill="black"/>
<path d="M168.854 104.594C168.912 104.027 168.951 103.52 168.971 103.07C168.99 102.641 169 102.23 169 101.84V91.791L170.113 91.7031L170.523 93.5195C170.621 93.5586 170.846 93.5781 171.197 93.5781C171.549 93.5977 172.027 93.6074 172.633 93.6074C173.238 93.627 173.971 93.6367 174.83 93.6367H180.338C181.217 93.6367 181.959 93.627 182.564 93.6074C183.189 93.6074 183.678 93.5977 184.029 93.5781C184.381 93.5781 184.596 93.5586 184.674 93.5195L185.084 91.7031L186.197 91.791V101.195C186.197 101.469 186.197 101.752 186.197 102.045C186.217 102.357 186.236 102.689 186.256 103.041C186.275 103.393 186.295 103.754 186.314 104.125L182.447 104.711L182.242 103.393L184.703 102.426C184.742 102.27 184.762 102.094 184.762 101.898C184.781 101.703 184.791 101.498 184.791 101.283V97.9727C184.791 97.6016 184.781 97.2695 184.762 96.9766C184.762 96.7031 184.742 96.4297 184.703 96.1562C184.625 96.1562 184.4 96.1465 184.029 96.127C183.678 96.127 183.268 96.1172 182.799 96.0977C182.33 96.0977 181.861 96.0977 181.393 96.0977H173.482C173.092 96.0977 172.691 96.0977 172.281 96.0977C171.891 96.1172 171.539 96.127 171.227 96.127C170.914 96.1465 170.699 96.1562 170.582 96.1562C170.562 96.4297 170.543 96.7129 170.523 97.0059C170.504 97.3184 170.494 97.6602 170.494 98.0312V100.873C170.494 101.303 170.494 101.654 170.494 101.928C170.514 102.201 170.533 102.416 170.553 102.572C170.572 102.729 170.592 102.855 170.611 102.953L173.395 104.477L173.131 105.795L168.854 104.594ZM175.006 101.342L176.998 100.99C177.037 100.893 177.066 100.727 177.086 100.492C177.105 100.258 177.115 99.9746 177.115 99.6426V97.416C177.115 97.1621 177.105 96.8887 177.086 96.5957C177.066 96.3027 177.047 95.9902 177.027 95.6582H178.639C178.619 95.9902 178.6 96.3027 178.58 96.5957C178.58 96.8887 178.58 97.1621 178.58 97.416V99.6426C178.58 99.9746 178.59 100.258 178.609 100.492C178.629 100.727 178.648 100.893 178.668 100.99L180.689 101.342V102.602H175.006V101.342Z" fill="black"/>
<path d="M167.989 125.916L174.23 127.944C175.326 128.3 176.202 128.574 176.858 128.767C177.533 128.966 178.031 129.107 178.353 129.191C178.693 129.281 178.895 129.326 178.956 129.325L179.962 127.558L180.994 127.985L179.273 133.279L178.188 133.019L178.359 131.164C178.303 131.146 178.114 131.064 177.792 130.919C177.482 130.797 176.996 130.619 176.333 130.383C175.689 130.153 174.819 129.86 173.723 129.504L167.092 127.349C166.516 127.162 165.912 126.966 165.281 126.761C164.668 126.562 164.033 126.366 163.377 126.173L163.784 124.919L180.908 119.147L180.709 119.76L173.242 117.334C172.127 116.972 171.223 116.688 170.53 116.484C169.855 116.285 169.357 116.144 169.035 116.06C168.707 115.994 168.503 115.959 168.423 115.953L167.417 117.721L166.385 117.293L168.124 111.944L169.209 112.204L169.047 114.03C169.116 114.073 169.305 114.155 169.614 114.276C169.918 114.416 170.401 114.604 171.064 114.84C171.745 115.082 172.643 115.384 173.758 115.746L178.522 117.294C179.358 117.565 180.048 117.779 180.593 117.936C181.138 118.092 181.562 118.21 181.865 118.288C182.168 118.366 182.382 118.404 182.505 118.403L183.447 116.83L184.479 117.258L183.239 121.075L167.826 126.417L167.989 125.916Z" fill="black"/>
<path d="M156.762 164.325L151.026 168.492C148.53 170.306 146.15 171.118 143.887 170.927C141.62 170.764 139.705 169.607 138.144 167.458C137.134 166.068 136.562 164.6 136.429 163.055C136.308 161.526 136.6 160.034 137.306 158.579C138.023 157.141 139.133 155.876 140.634 154.786L146.654 150.412L147.356 151.278L146.151 152.66C146.223 152.825 146.492 153.246 146.958 153.921C147.409 154.607 147.944 155.377 148.564 156.231L151.801 160.686C152.479 161.619 153.068 162.397 153.571 163.022C154.057 163.659 154.356 164.021 154.468 164.108L156.155 163.39L156.762 164.325ZM152.253 165.645C152.15 165.503 152.014 165.3 151.847 165.035C151.674 164.798 151.43 164.445 151.113 163.975C150.791 163.533 150.349 162.924 149.787 162.15L146.549 157.694C146.205 157.22 145.878 156.77 145.568 156.343C145.253 155.944 144.968 155.584 144.711 155.264C144.438 154.955 144.214 154.696 144.037 154.486C143.485 154.79 142.995 155.062 142.565 155.302C142.132 155.568 141.725 155.84 141.346 156.115C139.671 157.332 138.721 158.699 138.494 160.215C138.28 161.747 138.786 163.358 140.015 165.049C140.761 166.076 141.548 166.893 142.374 167.499C143.213 168.121 144.08 168.517 144.976 168.687C145.856 168.869 146.757 168.83 147.679 168.57C148.597 168.338 149.53 167.877 150.478 167.189C150.762 166.982 151.051 166.748 151.344 166.487C151.649 166.241 151.952 165.961 152.253 165.645Z" fill="black"/>
<path d="M113.624 167.423C114.181 167.304 114.676 167.184 115.109 167.064C115.524 166.95 115.917 166.832 116.289 166.712L125.846 163.606L126.273 164.638L124.673 165.589C124.666 165.694 124.716 165.914 124.825 166.248C124.915 166.589 125.054 167.047 125.241 167.623C125.409 168.205 125.626 168.904 125.892 169.721L127.594 174.96C127.866 175.796 128.104 176.498 128.31 177.068C128.503 177.663 128.663 178.124 128.79 178.452C128.899 178.787 128.984 178.985 129.045 179.047L130.9 178.876L131.16 179.962L122.216 182.868C121.956 182.953 121.687 183.04 121.408 183.131C121.117 183.246 120.807 183.367 120.479 183.494C120.15 183.621 119.813 183.752 119.466 183.885L117.714 180.388L118.904 179.786L120.584 181.827C120.745 181.816 120.918 181.78 121.104 181.72C121.295 181.678 121.494 181.624 121.698 181.558L124.846 180.535C125.199 180.42 125.512 180.308 125.785 180.199C126.045 180.115 126.299 180.012 126.547 179.89C126.523 179.816 126.462 179.599 126.366 179.24C126.258 178.906 126.14 178.513 126.014 178.061C125.869 177.615 125.724 177.169 125.579 176.723L123.135 169.2C123.014 168.829 122.891 168.448 122.764 168.058C122.625 167.692 122.507 167.361 122.41 167.064C122.295 166.773 122.219 166.571 122.183 166.46C121.917 166.526 121.642 166.595 121.357 166.667C121.054 166.745 120.726 166.841 120.373 166.956L117.67 167.834C117.261 167.967 116.927 168.075 116.667 168.16C116.413 168.263 116.215 168.348 116.072 168.415C115.929 168.482 115.815 168.539 115.728 168.588L115.139 171.706L113.804 171.862L113.624 167.423ZM118.618 172.27L119.568 174.056C119.673 174.063 119.84 174.039 120.069 173.985C120.298 173.932 120.57 173.853 120.886 173.751L123.004 173.063C123.245 172.984 123.502 172.89 123.775 172.781C124.048 172.672 124.339 172.557 124.648 172.436L125.146 173.968C124.825 174.052 124.521 174.13 124.237 174.202C123.958 174.293 123.698 174.377 123.456 174.456L121.339 175.144C121.023 175.246 120.757 175.343 120.54 175.434C120.323 175.525 120.171 175.595 120.084 175.644L120.375 177.675L119.177 178.064L117.42 172.659L118.618 172.27Z" fill="black"/>
<path d="M81.7443 167.372L81.4838 168.458L79.741 168.323C79.6983 168.391 79.6284 168.543 79.5314 168.778C79.4283 169.033 79.2862 169.438 79.1052 169.995C78.9055 170.547 78.6518 171.296 78.344 172.243L76.4783 177.89C76.1766 178.819 75.9505 179.547 75.8 180.073C75.6436 180.617 75.5354 181.014 75.4755 181.261C75.391 181.521 75.349 181.682 75.3495 181.744L76.9412 182.723L76.5136 183.755L70.5788 181.826C68.7398 181.229 67.4423 180.355 66.6862 179.206C65.9241 178.076 65.7905 176.749 66.2854 175.225C66.6234 174.185 67.1855 173.372 67.9716 172.785C68.7392 172.193 69.6382 171.828 70.6686 171.69C71.693 171.571 72.7532 171.69 73.8491 172.046C74.2578 172.179 74.6418 172.324 75.0012 172.482C75.3361 172.652 75.6523 172.816 75.95 172.975L75.4611 174.479C75.0761 174.211 74.7348 173.997 74.4371 173.839C74.1209 173.674 73.8049 173.541 73.4891 173.438C72.3931 173.082 71.4512 173.074 70.6631 173.413C69.8691 173.771 69.285 174.526 68.9108 175.678C68.4823 176.997 68.512 178.074 69.0002 178.911C69.4822 179.766 70.2434 180.362 71.2836 180.7L72.7603 181.18C72.7966 181.068 72.8903 180.811 73.0417 180.409C73.1745 180 73.3437 179.511 73.5494 178.941C73.7305 178.384 73.9266 177.78 74.1378 177.13L75.9478 171.465C76.2556 170.517 76.4908 169.762 76.6532 169.199C76.8097 168.654 76.9209 168.249 76.9868 167.983C77.0467 167.735 77.0887 167.574 77.1128 167.5L74.9179 166.386L75.3636 165.299L81.7443 167.372Z" fill="black"/>
<path d="M61.3496 159.133L60.7427 160.068L59.0386 159.373C58.9582 159.483 58.8377 159.649 58.6769 159.871C58.4889 160.096 58.2801 160.367 58.0505 160.683C57.8209 160.999 57.5741 161.339 57.3101 161.702C57.0302 162.054 56.7525 162.42 56.477 162.799L53.2396 167.255C52.7115 167.982 52.2774 168.596 51.9373 169.097C51.57 169.603 51.2966 169.996 51.1172 170.276C50.9106 170.56 50.8001 170.745 50.7858 170.832L52.0142 172.231L51.2887 173.08L46.0981 169.309C44.6128 168.23 43.6954 167.116 43.3459 165.969C42.9691 164.826 43.1883 163.694 44.0034 162.572C44.5659 161.798 45.2843 161.258 46.1587 160.951C47.0216 160.661 47.9585 160.617 48.9695 160.821C49.9806 161.024 50.9838 161.488 51.9793 162.211L53.4962 163.313L52.7213 164.38L51.3703 163.398C50.3906 162.686 49.4542 162.38 48.5611 162.48C47.6522 162.568 46.882 163.046 46.2506 163.915C45.6421 164.753 45.4199 165.557 45.584 166.328C45.7366 167.115 46.2553 167.83 47.1402 168.473L48.5149 169.471C48.5651 169.435 48.6326 169.376 48.7173 169.292C48.7747 169.213 48.8837 169.063 49.0445 168.842C49.2052 168.621 49.4405 168.297 49.7505 167.87C50.0604 167.444 50.4737 166.875 50.9903 166.164L54.4861 161.352C54.9797 160.673 55.393 160.104 55.7259 159.646C56.043 159.176 56.297 158.793 56.4879 158.497C56.6514 158.206 56.7827 157.975 56.8817 157.806L55.7416 156.434L56.4671 155.585L61.3496 159.133ZM50.2872 150.733C50.9825 151.238 51.5069 151.813 51.8605 152.456C52.2025 153.115 52.4083 153.928 52.4776 154.896C52.5356 155.879 52.478 157.105 52.3049 158.573L51.7813 162.683L49.711 161.794L49.8892 156.166C49.9175 155.196 49.9013 154.388 49.8407 153.74C49.7528 153.097 49.6039 152.554 49.394 152.112C49.1842 151.67 48.9025 151.26 48.5491 150.883L49.1755 150.07C49.3565 150.154 49.5475 150.256 49.7486 150.378C49.9339 150.489 50.1134 150.607 50.2872 150.733Z" fill="black"/>
<path d="M40.3755 139.031C41.3742 140.406 41.9637 141.848 42.1439 143.359C42.3127 144.854 42.0779 146.292 41.4397 147.673C40.8015 149.054 39.7871 150.25 38.3966 151.26C37.0061 152.27 35.5497 152.858 34.0275 153.022C32.4895 153.198 31.0142 152.978 29.6015 152.363C28.1888 151.748 26.9888 150.761 26.0015 149.402C25.0372 148.075 24.4879 146.687 24.3536 145.24C24.2078 143.776 24.4576 142.376 25.103 141.038C25.7484 139.7 26.7663 138.526 28.1568 137.515C29.2155 136.746 30.3193 136.222 31.4682 135.942C32.6171 135.663 33.753 135.598 34.8758 135.748C35.9829 135.909 37.0166 136.269 37.977 136.826C38.9101 137.38 39.7096 138.115 40.3755 139.031ZM38.9406 139.748C38.3207 138.894 37.5656 138.32 36.6755 138.026C35.7738 137.715 34.7938 137.679 33.7354 137.916C32.6611 138.166 31.571 138.692 30.4649 139.496C29.185 140.426 28.2066 141.438 27.5298 142.534C26.8414 143.613 26.4812 144.696 26.4491 145.781C26.4012 146.878 26.7159 147.893 27.3932 148.825C28.369 150.168 29.6417 150.873 31.2112 150.94C32.7692 150.991 34.4172 150.385 36.1554 149.122C37.3878 148.227 38.3289 147.229 38.9785 146.13C39.6122 145.042 39.9337 143.939 39.9429 142.822C39.952 141.705 39.6179 140.68 38.9406 139.748Z" fill="black"/>
<path d="M13.563 118.612L24.2514 121.454L22.1304 121.373L24.7774 120.513C25.4647 120.29 26.0498 120.1 26.5328 119.943C27.0097 119.767 27.3968 119.631 27.694 119.535C27.9666 119.425 28.1741 119.337 28.3167 119.271C28.4593 119.204 28.5584 119.161 28.6141 119.143L28.3426 117.075L29.4474 116.778L31.5115 123.13L30.452 123.567L29.4561 121.734C29.3943 121.734 29.2892 121.758 29.1406 121.806C28.9859 121.836 28.7663 121.887 28.4816 121.959C28.1784 122.037 27.7853 122.154 27.3023 122.311C26.8133 122.449 26.2252 122.63 25.5379 122.854L22.8909 123.714L24.6045 122.541L17.5645 130.927L17.6271 132.447L16.5502 132.736L14.6761 126.968L15.7078 126.54L16.6501 128.113L21.8949 121.881L22.0217 122.271L14.1695 120.479L14.4132 122.556L13.3272 122.816L11.6795 117.745L12.7202 117.346L13.563 118.612Z" fill="black"/>
<path d="M27.1465 91.4062C27.0879 91.9727 27.0488 92.4805 27.0293 92.9297C27.0098 93.3594 27 93.7695 27 94.1602V104.209L25.8867 104.297L25.4766 102.48C25.3789 102.441 25.1543 102.422 24.8027 102.422C24.4512 102.402 23.9727 102.393 23.3672 102.393C22.7617 102.373 22.0293 102.363 21.1699 102.363H15.6621C14.7832 102.363 14.041 102.373 13.4355 102.393C12.8105 102.393 12.3223 102.402 11.9707 102.422C11.6191 102.422 11.4043 102.441 11.3262 102.48L10.916 104.297L9.80273 104.209V94.8047C9.80273 94.5312 9.80273 94.248 9.80273 93.9551C9.7832 93.6426 9.76367 93.3105 9.74414 92.959C9.72461 92.6074 9.70508 92.2461 9.68555 91.875L13.5527 91.2891L13.7578 92.6074L11.2969 93.5742C11.2578 93.7305 11.2383 93.9062 11.2383 94.1016C11.2188 94.2969 11.209 94.502 11.209 94.7168V98.0273C11.209 98.3984 11.2188 98.7305 11.2383 99.0234C11.2383 99.2969 11.2578 99.5703 11.2969 99.8438C11.375 99.8438 11.5996 99.8535 11.9707 99.873C12.3223 99.873 12.7324 99.8828 13.2012 99.9023C13.6699 99.9023 14.1387 99.9023 14.6074 99.9023H22.5176C22.9082 99.9023 23.3086 99.9023 23.7188 99.9023C24.1094 99.8828 24.4609 99.873 24.7734 99.873C25.0859 99.8535 25.3008 99.8438 25.418 99.8438C25.4375 99.5703 25.457 99.2871 25.4766 98.9941C25.4961 98.6816 25.5059 98.3398 25.5059 97.9688V95.127C25.5059 94.6973 25.5059 94.3457 25.5059 94.0723C25.4863 93.7988 25.4668 93.584 25.4473 93.4277C25.4277 93.2715 25.4082 93.1445 25.3887 93.0469L22.6055 91.5234L22.8691 90.2051L27.1465 91.4062ZM20.9941 94.6582L19.002 95.0098C18.9629 95.1074 18.9336 95.2734 18.9141 95.5078C18.8945 95.7422 18.8848 96.0254 18.8848 96.3574V98.584C18.8848 98.8379 18.8945 99.1113 18.9141 99.4043C18.9336 99.6973 18.9531 100.01 18.9727 100.342H17.3613C17.3809 100.01 17.4004 99.6973 17.4199 99.4043C17.4199 99.1113 17.4199 98.8379 17.4199 98.584V96.3574C17.4199 96.0254 17.4102 95.7422 17.3906 95.5078C17.3711 95.2734 17.3516 95.1074 17.332 95.0098L15.3105 94.6582V93.3984H20.9941V94.6582Z" fill="black"/>
<path d="M31.3236 74.3024C30.7985 75.9184 30.0122 77.2956 28.9646 78.4338C27.9046 79.5475 26.6318 80.3045 25.1463 80.7049C23.6422 81.0992 21.98 81.0007 20.1596 80.4092C18.9893 80.029 17.9598 79.4685 17.0709 78.7279C16.1635 77.9813 15.4464 77.0911 14.9198 76.0575C14.3806 74.9992 14.0721 73.8311 13.9945 72.5532C13.9168 71.2752 14.1134 69.9118 14.5842 68.4629C14.8316 67.7013 15.1685 66.9175 15.5947 66.1113C16.0209 65.3051 16.482 64.6129 16.9779 64.0347L20.8585 65.08L20.5626 66.37L17.644 66.3459C17.2878 66.6203 16.9605 67.0274 16.6619 67.567C16.3448 68.1006 16.0987 68.6367 15.9237 69.1754C15.471 70.5686 15.4064 71.8105 15.7296 72.9013C16.0404 73.9675 16.6279 74.8772 17.4921 75.6303C18.3624 76.3649 19.4013 76.9283 20.6086 77.3206C22.1876 77.8336 23.6125 77.9988 24.8835 77.8163C26.1605 77.6151 27.2285 77.1407 28.0875 76.393C28.9526 75.6267 29.5692 74.677 29.9374 73.5439C30.1305 72.9495 30.2405 72.3897 30.2674 71.8645C30.2943 71.3393 30.2502 70.8115 30.135 70.2812L27.9142 68.2042L28.4699 66.9678L31.7272 68.8887C31.8563 69.6289 31.8998 70.4747 31.8576 71.4262C31.8154 72.3777 31.6374 73.3364 31.3236 74.3024Z" fill="black"/>
<path d="M30.9699 40.009L35.1884 42.2772L34.5492 43.4062L31.1477 42.4558C31.0242 42.5592 30.8994 42.6978 30.7731 42.8717C30.6425 43.0182 30.5313 43.1547 30.4394 43.2811L29.8195 44.1343C29.7047 44.2923 29.5497 44.5057 29.3545 44.7743C29.1594 45.0429 28.9893 45.2936 28.8444 45.5262C28.9708 45.6181 29.2653 45.8441 29.7279 46.2043C30.1861 46.5372 30.7233 46.9276 31.3396 47.3753C31.9558 47.823 32.5483 48.2535 33.1172 48.6668L36.3169 50.9916C37.3282 51.7263 38.2109 52.3555 38.965 52.8793C39.7034 53.3916 40.1831 53.7281 40.4043 53.8888L42.1525 52.0808L43.0489 52.8407L38.6577 58.8847L37.6752 58.2433L38.8373 56.0457C38.6161 55.8849 38.1478 55.5326 37.4324 54.9888C36.7012 54.4334 35.83 53.7883 34.8188 53.0536L31.619 50.7289C31.0502 50.3156 30.4576 49.8851 29.8414 49.4373C29.2252 48.9896 28.6879 48.5993 28.2297 48.2664C27.7557 47.922 27.4497 47.7117 27.3118 47.6357C27.1468 47.8296 26.9667 48.0609 26.7715 48.3295C26.5878 48.5823 26.4328 48.7957 26.3065 48.9695L25.635 49.8938C25.5431 50.0202 25.4477 50.1682 25.3487 50.3377C25.2339 50.4957 25.1464 50.6494 25.0861 50.7988L27.0821 53.7336L26.165 54.6969L22.7041 51.3858C22.8577 51.2076 23.0113 51.0295 23.1648 50.8514C23.3026 50.6618 23.4483 50.4779 23.6018 50.2997C23.7396 50.1101 23.8852 49.9263 24.0388 49.7481C24.1881 49.5427 24.3316 49.3452 24.4693 49.1556L29.3943 42.3769C29.5321 42.1873 29.6698 41.9977 29.8076 41.8081C29.9296 41.607 30.0594 41.4116 30.1972 41.222C30.3191 41.0209 30.449 40.8256 30.5868 40.6359C30.7202 40.4191 30.8479 40.2101 30.9699 40.009Z" fill="black"/>
<path d="M56.9687 40.3759C55.594 41.3747 54.1513 41.9642 52.6406 42.1444C51.1457 42.3132 49.7077 42.0784 48.3266 41.4402C46.9455 40.8019 45.7498 39.7876 44.7395 38.3971C43.7293 37.0066 43.1419 35.5502 42.9775 34.028C42.8016 32.49 43.0213 31.0147 43.6366 29.602C44.2519 28.1893 45.239 26.9893 46.5979 26.002C47.9251 25.0377 49.3126 24.4883 50.7601 24.3541C52.2234 24.2083 53.6241 24.4581 54.9621 25.1035C56.3001 25.7489 57.4742 26.7668 58.4845 28.1573C59.2536 29.216 59.778 30.3198 60.0574 31.4687C60.3369 32.6176 60.4017 33.7535 60.2518 34.8763C60.0904 35.9834 59.731 37.0171 59.1733 37.9775C58.6201 38.9106 57.8852 39.7101 56.9687 40.3759ZM56.2521 38.9411C57.1054 38.3211 57.6794 37.5661 57.9742 36.6759C58.2848 35.7743 58.3212 34.7943 58.0833 33.7359C57.834 32.6616 57.3075 31.5715 56.5039 30.4654C55.574 29.1855 54.5614 28.2071 53.4661 27.5303C52.3865 26.8419 51.304 26.4817 50.2184 26.4496C49.1214 26.4017 48.1067 26.7164 47.1744 27.3937C45.8314 28.3695 45.1264 29.6422 45.0596 31.2117C45.0086 32.7697 45.6145 34.4177 46.8773 36.1558C47.7728 37.3883 48.7703 38.3294 49.87 38.9789C50.9581 39.6127 52.0608 39.9342 53.178 39.9433C54.2951 39.9525 55.3199 39.6184 56.2521 38.9411Z" fill="black"/>
<path d="M76.2124 30.7025C75.4137 30.9621 74.5446 31.1315 73.6052 31.2108C72.6658 31.2902 71.8754 31.2595 71.2341 31.1187L69.9269 27.5697L71.0888 27.0689L72.6747 29.2952C73.2171 29.4476 73.7848 29.5198 74.3778 29.512C74.9648 29.4856 75.5647 29.3728 76.1777 29.1736C77.1065 28.8718 77.7678 28.4105 78.1616 27.7897C78.574 27.1628 78.6565 26.4686 78.4091 25.707C78.1978 25.0568 77.8277 24.5815 77.2988 24.281C76.7639 23.962 76.1294 23.7472 75.3952 23.6366C74.6796 23.52 73.9176 23.4185 73.1091 23.332C72.3192 23.2396 71.5451 23.1009 70.7868 22.916C70.0411 22.7065 69.3796 22.3772 68.8024 21.9281C68.2192 21.4605 67.7857 20.7901 67.5021 19.9171C67.2063 19.0069 67.2006 18.136 67.4848 17.3043C67.7631 16.4541 68.2846 15.689 69.0495 15.0093C69.8329 14.3234 70.8005 13.7934 71.9522 13.4192C72.4351 13.2623 72.9085 13.1393 73.3725 13.0501C73.8489 12.9364 74.2973 12.8626 74.7175 12.8287C75.1378 12.7949 75.53 12.8009 75.894 12.8469L77.2486 16.2574L76.0867 16.7581L74.546 14.6711C73.8495 14.4867 73.0276 14.5484 72.0802 14.8562C71.1329 15.164 70.4467 15.6437 70.0218 16.2952C69.6094 16.922 69.5269 17.6163 69.7744 18.3779C69.9916 19.0466 70.3677 19.5405 70.9027 19.8595C71.4562 20.1725 72.0937 20.3967 72.8154 20.5318C73.5556 20.661 74.3206 20.7718 75.1105 20.8643C75.919 20.9507 76.6931 21.0894 77.4328 21.2803C78.1911 21.4652 78.8589 21.7821 79.436 22.2312C80.0258 22.6557 80.4564 23.2859 80.728 24.1218C81.0177 25.0134 81.0172 25.8966 80.7264 26.7715C80.4482 27.6217 79.9204 28.3991 79.143 29.1034C78.3595 29.7893 77.3827 30.3223 76.2124 30.7025Z" fill="black"/>
</svg>
