<svg width="197" height="197" viewBox="0 0 197 197" fill="none" xmlns="http://www.w3.org/2000/svg">
<path d="M92.3477 27L92.2598 25.7695L93.959 25.3594C93.9785 25.2812 93.998 25.0664 94.0176 24.7148C94.0371 24.3633 94.0469 23.8848 94.0469 23.2793C94.0664 22.6738 94.0762 21.9414 94.0762 21.082L94.1055 15.4863C94.1055 14.6855 94.0957 14.002 94.0762 13.4355C94.0762 12.8691 94.0664 12.4199 94.0469 12.0879C94.0273 11.7363 94.0078 11.5312 93.9883 11.4727L92.1719 11.0332L92.2598 9.80273L101.342 9.80273C101.674 9.80273 102.025 9.80273 102.396 9.80273C102.787 9.7832 103.188 9.76367 103.598 9.74414C104.008 9.72461 104.398 9.70508 104.77 9.68555L105.414 13.6992L103.979 13.9043L102.924 11.4141C102.768 11.375 102.592 11.3457 102.396 11.3262C102.201 11.3066 101.996 11.2969 101.781 11.2969L98.8516 11.2969C98.5391 11.2969 98.207 11.3066 97.8555 11.3262C97.5234 11.3457 97.25 11.375 97.0352 11.4141C97.0352 11.4922 97.0254 11.6289 97.0059 11.8242C97.0059 12 97.0059 12.2441 97.0059 12.5566C97.0059 12.8691 97.0059 13.2305 97.0059 13.6406C97.0059 14.0508 97.0059 14.5293 97.0059 15.0762L97.0352 21.5508C97.0352 22.293 97.0352 22.9375 97.0352 23.4844C97.0547 24.0312 97.0742 24.4609 97.0938 24.7734C97.1133 25.0859 97.1328 25.2812 97.1523 25.3594L99.5254 25.7109L99.4668 27L92.3477 27ZM101.869 21.2871L101.518 19.207C101.361 19.168 101.156 19.1387 100.902 19.1191C100.648 19.0996 100.355 19.0898 100.023 19.0898H97.8262C97.5723 19.0898 97.3184 19.0996 97.0645 19.1191C96.8105 19.1191 96.5371 19.1289 96.2441 19.1484V17.4199C96.4785 17.4395 96.7227 17.459 96.9766 17.4785C97.25 17.498 97.5332 17.5078 97.8262 17.5078H100.023C100.414 17.5078 100.736 17.498 100.99 17.4785C101.244 17.4395 101.42 17.4102 101.518 17.3906L101.869 15.4277H103.275V21.2871H101.869Z" fill="#F54286"/>
<path d="M117.409 29.2174L117.798 28.0489L119.651 28.2953C119.7 28.1678 119.778 27.9675 119.884 27.6943C120.015 27.4099 120.154 27.0765 120.303 26.6941C120.451 26.3116 120.606 25.9109 120.768 25.4921C120.949 25.0802 121.12 24.6649 121.282 24.246L123.124 19.4926C123.441 18.673 123.704 17.9683 123.912 17.3785C124.137 16.7957 124.308 16.3277 124.424 15.9746C124.54 15.6215 124.594 15.4015 124.585 15.3146L123.013 14.2654L123.539 13.1497L129.877 15.605C131.716 16.3176 132.97 17.1908 133.638 18.2245C134.313 19.24 134.392 20.4124 133.877 21.7419C133.532 22.6344 132.966 23.3369 132.181 23.8496C131.403 24.3442 130.481 24.6154 129.415 24.6633C128.368 24.7182 127.261 24.5199 126.095 24.0684L124.374 23.4016L124.882 22.0903L126.303 22.6407C127.359 23.0499 128.297 23.0886 129.117 22.7569C129.937 22.4251 130.537 21.7675 130.918 20.784C131.278 19.8552 131.285 19.0517 130.941 18.3736C130.621 17.6843 129.979 17.1527 129.014 16.7787L127.593 16.2284C127.554 16.276 127.497 16.3691 127.422 16.5078C127.366 16.6535 127.277 16.8811 127.158 17.1907C127.045 17.4821 126.893 17.8737 126.702 18.3654C126.519 18.8389 126.286 19.4399 126.004 20.1684L124.014 25.3043C123.746 25.9964 123.506 26.6156 123.295 27.162C123.101 27.7154 122.939 28.1869 122.81 28.5764C122.705 28.9547 122.626 29.2385 122.574 29.4277L124 30.4513L123.473 31.5669L117.409 29.2174ZM130.661 34.6658C129.805 34.3342 129.088 33.8887 128.509 33.3292C127.955 32.7585 127.511 32.0107 127.179 31.0858C126.871 30.1498 126.633 28.979 126.466 27.5735L126.019 23.536L128.553 23.8892L129.908 29.4728C130.114 30.3483 130.327 31.0696 130.547 31.6367C130.785 32.2108 131.062 32.6847 131.378 33.0585C131.694 33.4323 132.072 33.7564 132.51 34.0309L132.07 35.0857C131.837 35.0375 131.599 34.9766 131.355 34.9031C131.129 34.8367 130.898 34.7576 130.661 34.6658Z" fill="#F54286"/>
<path d="M139.89 39.7375L140.676 38.7887L142.035 39.4724L156.539 32.4767L158.738 32.935L152.687 49.1831L153.515 50.4928L152.621 51.343L147.814 46.9613L148.578 45.9928L150.197 46.9134L151.785 42.6923L152.179 41.7824L154.994 34.0413L155.673 34.3832L148.303 38.2494L147.473 38.6818L143.507 40.8146L144.573 42.3414L143.701 43.2112L139.89 39.7375ZM146.604 38.722L147.748 37.4663C148.01 37.7307 148.35 38.0675 148.77 38.4767C149.204 38.899 149.746 39.4063 150.396 39.9984C151.045 40.5905 151.6 41.0833 152.061 41.4767C152.521 41.8702 152.888 42.1781 153.161 42.4006L152.036 43.6346C151.618 43.2531 151.191 42.8511 150.757 42.4288C150.323 42.0064 149.86 41.5716 149.369 41.1242C148.893 40.69 148.432 40.2827 147.986 39.9024C147.539 39.5221 147.079 39.1286 146.604 38.722Z" fill="#F54286"/>
<path d="M168.293 68.7345L173.564 66.1096C174.543 65.6221 175.352 65.2086 175.99 64.869C176.628 64.5294 177.109 64.2681 177.433 64.0852C177.774 63.8936 177.97 63.7629 178.023 63.6931L177.502 61.727L178.643 61.2572L181.215 66.4236L180.153 67.0507L178.963 65.5814C178.893 65.6162 178.675 65.7032 178.308 65.8423C177.967 65.9902 177.469 66.2165 176.813 66.5212C176.157 66.8258 175.34 67.2219 174.361 67.7094L168.513 70.6215C167.883 70.9349 167.271 71.2396 166.677 71.5356C166.082 71.8316 165.484 72.1407 164.88 72.4629L164.227 71.1516L171.997 54.8787L172.415 55.7179L165.964 58.9303C164.95 59.4353 164.106 59.8662 163.433 60.2233C162.777 60.5716 162.279 60.8415 161.938 61.0331C161.623 61.2335 161.427 61.3642 161.348 61.4252L161.882 63.4176L160.741 63.8874L158.129 58.6423L159.192 58.0151L160.368 59.4583C160.473 59.4497 160.705 59.3671 161.063 59.2105C161.422 59.0539 161.937 58.8189 162.61 58.5055C163.301 58.1835 164.145 57.7744 165.141 57.2781L169.311 55.2018C170.01 54.8536 170.609 54.5445 171.108 54.2745C171.606 54.0046 171.999 53.7868 172.288 53.6214C172.576 53.4559 172.756 53.3339 172.826 53.2554L172.383 51.4466L173.524 50.9768L175.404 54.7533L168.619 69.3901L168.293 68.7345Z" fill="#F54286"/>
<path d="M169.021 93.3549C168.859 91.6045 169.034 89.9995 169.546 88.5398C170.078 87.0783 170.946 85.8699 172.153 84.9147C173.38 83.9772 174.937 83.421 176.823 83.2462C178.087 83.129 179.285 83.2437 180.415 83.5901C181.565 83.9346 182.578 84.4978 183.455 85.2797C184.351 86.0597 185.079 87.0319 185.638 88.1962C186.216 89.3587 186.575 90.6887 186.714 92.1862C186.791 93.0225 186.784 93.896 186.692 94.8068C186.619 95.7158 186.467 96.5145 186.237 97.2027L182.114 97.7908L181.862 96.343L184.637 95.1738C184.836 94.7826 184.968 94.2997 185.032 93.7249C185.098 93.1695 185.106 92.6196 185.056 92.075C184.93 90.7137 184.525 89.6233 183.841 88.8041C183.176 87.983 182.309 87.4062 181.238 87.0739C180.168 86.7416 178.991 86.6349 177.707 86.7538C176.113 86.9016 174.776 87.3 173.699 87.9491C172.623 88.6176 171.837 89.4456 171.34 90.4332C170.843 91.4207 170.648 92.4882 170.754 93.6357C170.806 94.1996 170.925 94.7379 171.11 95.2504C171.314 95.761 171.572 96.2177 171.884 96.6203L174.708 97.565L174.676 99.1273L170.863 98.6273C170.456 98.0374 170.071 97.2689 169.708 96.3217C169.348 95.394 169.119 94.4051 169.021 93.3549Z" fill="#F54286"/>
<path d="M167.62 114.204L168.828 114.456L168.725 116.315C168.809 116.379 169.026 116.472 169.378 116.592C169.729 116.712 170.206 116.858 170.807 117.029C171.403 117.219 172.104 117.429 172.912 117.659L177.815 119.054C178.642 119.289 179.358 119.483 179.965 119.635C180.585 119.811 181.076 119.941 181.438 120.024C181.8 120.106 182.024 120.14 182.11 120.123L183.002 118.489L184.161 118.91L182.317 125.391L181.11 125.139L181.212 123.279C181.148 123.22 180.952 123.124 180.624 122.99C180.292 122.875 179.827 122.723 179.231 122.533C178.63 122.362 177.888 122.151 177.005 121.9L172.102 120.505C171.238 120.259 170.506 120.05 169.904 119.879C169.317 119.732 168.851 119.62 168.508 119.543C168.159 119.484 167.932 119.46 167.827 119.471L166.936 121.106L165.776 120.685L167.62 114.204Z" fill="#F54286"/>
<path d="M154.852 140.641C155.358 139.971 155.979 139.327 156.715 138.708C157.452 138.089 158.143 137.644 158.788 137.373L162.056 139.657L161.284 140.874L158.557 139.915C158.041 140.113 157.556 140.383 157.101 140.725C156.635 141.083 156.232 141.488 155.89 141.94C155.314 142.703 155.038 143.425 155.063 144.105C155.076 144.8 155.387 145.378 155.995 145.837C156.54 146.249 157.108 146.42 157.698 146.352C158.304 146.295 158.925 146.104 159.563 145.778C160.217 145.464 160.892 145.105 161.588 144.701C162.273 144.312 162.973 143.985 163.689 143.717C164.42 143.462 165.151 143.353 165.882 143.391C166.628 143.44 167.375 143.747 168.123 144.312C168.918 144.912 169.446 145.654 169.709 146.538C169.972 147.422 169.973 148.377 169.711 149.403C169.438 150.445 168.914 151.481 168.137 152.51C167.842 152.899 167.525 153.271 167.184 153.626C166.858 153.992 166.519 154.311 166.167 154.583C165.818 154.883 165.482 155.118 165.157 155.289L161.912 153.169L162.683 151.952L165.276 152.846C165.949 152.571 166.562 152.067 167.115 151.334C167.68 150.586 167.946 149.845 167.914 149.11C167.896 148.388 167.584 147.797 166.976 147.338C166.415 146.914 165.832 146.73 165.226 146.787C164.62 146.844 163.983 147.023 163.314 147.326C162.649 147.655 161.974 148.015 161.289 148.403C160.592 148.807 159.886 149.142 159.17 149.41C158.443 149.692 157.714 149.815 156.984 149.777C156.257 149.767 155.535 149.491 154.818 148.95C154.055 148.373 153.539 147.629 153.273 146.718C153.022 145.819 153.025 144.842 153.283 143.789C153.54 142.735 154.063 141.686 154.852 140.641Z" fill="#F54286"/>
<path d="M134.043 159.136C135.538 158.211 137.053 157.652 138.587 157.459C140.133 157.284 141.602 157.523 142.994 158.177C144.381 158.857 145.572 160.003 146.57 161.614C147.238 162.693 147.669 163.816 147.863 164.983C148.067 166.166 148.015 167.324 147.706 168.457C147.407 169.607 146.861 170.692 146.068 171.711C145.285 172.747 144.254 173.661 142.976 174.453C142.261 174.895 141.476 175.277 140.62 175.601C139.774 175.941 138.991 176.161 138.272 176.262L135.908 172.833L137.092 171.962L139.375 173.925C139.814 173.929 140.305 173.832 140.849 173.633C141.375 173.445 141.871 173.207 142.336 172.919C143.498 172.199 144.294 171.351 144.722 170.373C145.161 169.412 145.291 168.379 145.111 167.272C144.932 166.166 144.502 165.065 143.824 163.969C142.981 162.607 142.029 161.589 140.967 160.913C139.889 160.249 138.798 159.914 137.692 159.909C136.587 159.904 135.544 160.205 134.564 160.812C134.083 161.11 133.654 161.456 133.277 161.85C132.911 162.261 132.617 162.695 132.396 163.154L132.809 166.103L131.396 166.771L130.145 163.135C130.491 162.507 131.007 161.82 131.694 161.073C132.363 160.337 133.147 159.691 134.043 159.136Z" fill="#F54286"/>
<path d="M110.746 167.656C112.455 167.337 114.04 167.418 115.501 167.9C116.943 168.385 118.158 169.201 119.148 170.348C120.14 171.513 120.795 172.941 121.111 174.63C121.426 176.32 121.334 177.897 120.833 179.361C120.312 180.83 119.462 182.072 118.28 183.087C117.099 184.103 115.664 184.768 113.974 185.084C112.323 185.393 110.806 185.299 109.421 184.803C108.018 184.31 106.841 183.487 105.89 182.334C104.943 181.199 104.311 179.787 103.995 178.098C103.744 176.754 103.756 175.49 104.032 174.306C104.288 173.125 104.746 172.066 105.405 171.128C106.068 170.21 106.859 169.446 107.778 168.837C108.701 168.247 109.69 167.853 110.746 167.656ZM110.844 169.456C109.846 169.642 109.038 170.052 108.421 170.684C107.808 171.335 107.399 172.176 107.194 173.208C106.99 174.24 107.011 175.418 107.259 176.743C107.55 178.298 108.031 179.599 108.704 180.645C109.361 181.715 110.142 182.492 111.047 182.979C111.957 183.484 112.949 183.637 114.024 183.436C115.541 183.152 116.641 182.341 117.324 181.001C117.988 179.665 118.127 177.96 117.739 175.886C117.466 174.427 116.994 173.174 116.321 172.128C115.633 171.104 114.817 170.352 113.873 169.873C112.91 169.398 111.9 169.258 110.844 169.456Z" fill="#F54286"/>
<path d="M59.5284 157.432L58.9304 158.509L57.3315 157.864C57.3346 158.119 57.3544 158.383 57.3907 158.659C57.4002 158.94 57.4441 159.277 57.5223 159.671L58.5336 166.051L59.5548 166.683L58.9379 167.68L57.5074 167.208L49.0911 169.336L50.4504 170.591L49.7279 171.591L44.6964 168.476L45.3002 167.333L46.949 168.01L56.1647 166.204L55.5905 167.02L54.1951 158.644C54.0955 158.1 54.0201 157.628 53.9687 157.229C53.907 156.846 53.8529 156.526 53.8063 156.267C53.7327 156.015 53.6822 155.8 53.6545 155.622L52.5384 154.586L53.2016 153.515L59.5284 157.432ZM67.4244 162.321L66.8514 163.414L65.0911 162.806C64.986 162.902 64.7246 163.269 64.307 163.906C63.8894 164.543 63.3464 165.402 62.6781 166.481L59.9945 170.815C59.5421 171.546 59.1597 172.182 58.8473 172.724C58.508 173.272 58.249 173.708 58.0702 174.034C57.8915 174.36 57.7981 174.566 57.7902 174.653L59.1186 175.958L58.3961 176.958L52.6671 173.411L53.2402 172.319L55.0004 172.926C55.0748 172.88 55.2262 172.71 55.4548 172.415C55.6565 172.126 55.9301 171.721 56.2758 171.2C56.6048 170.669 57.0058 170.021 57.4787 169.257L60.1623 164.923C60.8306 163.844 61.357 162.975 61.7414 162.317C62.1091 161.649 62.3207 161.252 62.3761 161.125L61.1473 159.882L61.8698 158.882L67.4244 162.321Z" fill="#F54286"/>
<path d="M46.9354 147.649L45.9888 148.437L44.7787 147.515L29.2359 151.727L27.1589 150.872L36.0923 136.013L35.5192 134.573L36.5541 133.902L40.4736 139.092L39.5446 139.904L38.1227 138.701L35.7858 142.559L35.2319 143.381L31.0423 150.473L30.4373 150.012L38.3922 147.566L39.2877 147.293L43.5782 145.926L42.8109 144.229L43.8281 143.534L46.9354 147.649ZM40.1495 147.413L38.7935 148.437C38.5854 148.13 38.3126 147.736 37.9751 147.257C37.6258 146.762 37.1864 146.163 36.6567 145.462C36.127 144.761 35.672 144.174 35.2915 143.703C34.9111 143.232 34.6071 142.861 34.3796 142.593L35.7123 141.586C36.0536 142.038 36.3989 142.512 36.7482 143.007C37.0975 143.502 37.4722 144.014 37.8724 144.544C38.2608 145.058 38.6394 145.543 39.0081 145.999C39.3768 146.455 39.7572 146.926 40.1495 147.413Z" fill="#F54286"/>
<path d="M11.3481 114.713L15.8413 112.734L16.3831 114.103L13.5277 116.164C13.5382 116.344 13.5729 116.537 13.6317 116.744C13.6663 116.937 13.7104 117.128 13.7638 117.316L14.0444 118.302C14.0979 118.49 14.1647 118.725 14.2449 119.006C14.325 119.288 14.4066 119.539 14.4895 119.759C14.6398 119.716 14.9994 119.624 15.5683 119.483C16.1131 119.328 16.7706 119.141 17.5408 118.921C18.2922 118.708 19.0249 118.499 19.7387 118.296L23.1765 117.318C24.3224 116.992 25.3342 116.694 26.2118 116.424C27.0706 116.159 27.6596 115.981 27.979 115.891L27.6276 113.371L28.8915 113.103L31.0723 120.767L29.8565 121.205L28.8369 118.906C28.5175 118.997 27.9231 119.156 27.0536 119.383C26.1653 119.615 25.1482 119.894 24.0023 120.22L20.5645 121.198C19.8507 121.402 19.118 121.61 18.3666 121.824C17.5964 122.043 16.9389 122.23 16.3941 122.385C15.8306 122.545 15.4763 122.656 15.3314 122.718C15.3714 122.93 15.4315 123.177 15.5116 123.459C15.5865 123.722 15.6533 123.956 15.7121 124.163L16.0087 125.206C16.0622 125.393 16.1277 125.588 16.2053 125.789C16.2587 125.977 16.3283 126.15 16.414 126.309L19.9752 126.514L20.207 127.971L15.3328 128.718C15.2875 128.487 15.2394 128.247 15.1887 127.998C15.1139 127.735 15.0458 127.459 14.9844 127.172C14.9042 126.891 14.8361 126.615 14.7801 126.347C14.6999 126.065 14.6251 125.802 14.5556 125.558L12.3428 117.781C12.2786 117.555 12.2091 117.311 12.1343 117.048C12.0353 116.772 11.9458 116.493 11.8656 116.211C11.7666 115.934 11.6797 115.665 11.6049 115.402C11.5113 115.144 11.4257 114.915 11.3481 114.713Z" fill="#F54286"/>
<path d="M26.9219 100.011L25.6912 99.9557L25.418 98.4593L11.0945 91.1004L10.1352 89.0696L26.7479 84.1067L27.2942 82.6568L28.5113 82.8578L27.9112 89.334L26.6779 89.308L26.4371 87.4615L22.1114 88.7377L21.1482 88.9721L13.2742 91.3907L13.1376 90.6424L20.6643 94.1939L21.5097 94.5959L25.6018 96.4756L26.1778 94.7048L27.3976 94.8766L26.9219 100.011ZM22.0656 95.2652L20.3736 95.1084C20.4273 94.7407 20.4909 94.2661 20.5644 93.6844C20.6397 93.0833 20.7179 92.3452 20.799 91.4701C20.8801 90.5949 20.9389 89.855 20.9753 89.2503C21.0117 88.6456 21.0364 88.1673 21.0494 87.8155L22.7122 87.9696C22.6599 88.5335 22.5962 89.1161 22.5208 89.7172C22.4455 90.3182 22.3772 90.9494 22.316 91.6106C22.2565 92.2524 22.2094 92.8659 22.1748 93.4512C22.1402 94.0364 22.1038 94.6411 22.0656 95.2652Z" fill="#F54286"/>
<path d="M37.7942 60.7794C37.6112 61.0592 37.4152 61.3871 37.2062 61.763C37.0059 62.1215 36.81 62.4712 36.6184 62.8121C36.4442 63.1618 36.2919 63.4678 36.1613 63.73L32.0478 71.9911L30.9202 71.495L31.3627 69.6862C31.284 69.6252 31.0829 69.5033 30.7594 69.3204C30.4184 69.1288 29.9682 68.8937 29.4087 68.6151C28.858 68.319 28.2154 67.9882 27.4811 67.6225L22.9179 65.3503C22.1486 64.9672 21.493 64.6408 20.951 64.3709C20.3915 64.0923 19.9413 63.8791 19.6004 63.7311C19.242 63.5745 19.0192 63.4962 18.9318 63.4964L17.7288 64.9265L16.6534 64.3256L19.9442 57.7167L21.1373 58.2127L20.3944 60.5591C20.4294 60.6202 20.5956 60.7466 20.8929 60.9383C21.1989 61.1125 21.6273 61.3476 22.1781 61.6437C22.7375 61.9222 23.4281 62.2661 24.2499 62.6753L28.8131 64.9475C29.7572 65.4176 30.5658 65.8094 31.2389 66.1227C31.8945 66.4273 32.3316 66.6231 32.5501 66.7101C32.7156 66.4653 32.8768 66.2073 33.0336 65.9363C33.1903 65.6653 33.3645 65.3374 33.556 64.9528L34.3657 63.3268C34.5659 62.9247 34.7269 62.5794 34.8487 62.291C34.9618 61.9763 35.0617 61.6879 35.1487 61.4257L33.2051 58.6906L34.1465 57.523L37.7942 60.7794Z" fill="#F54286"/>
<path d="M32.8793 38.3959L38.3569 33.4024C40.6519 31.3102 42.9417 30.2271 45.2263 30.153C47.4977 30.0645 49.5282 31.0017 51.3177 32.9647C52.4757 34.2348 53.1989 35.637 53.4874 37.1711C53.7772 38.6777 53.6447 40.1993 53.0897 41.7359C52.5361 43.2449 51.5664 44.631 50.1808 45.8942L44.465 51.1048L43.5711 50.2547L44.6371 48.7279C44.562 48.5585 44.2553 48.1641 43.7171 47.5447C43.1802 46.8978 42.5433 46.1701 41.8064 45.3619L38.3722 41.5946C37.5695 40.7142 36.884 39.9912 36.3157 39.4258C35.7486 38.8327 35.3974 38.5054 35.262 38.4438L33.6433 39.3644L32.8793 38.3959ZM37.6613 36.3358C37.7666 36.4512 37.9239 36.6382 38.1331 36.8968C38.3568 37.1421 38.6588 37.4879 39.0391 37.9341C39.4207 38.3527 39.9273 38.9084 40.5589 39.6012L43.9932 43.3684C44.3747 43.787 44.7432 44.1911 45.0984 44.5808C45.4681 44.9574 45.8049 45.2979 46.1089 45.6022C46.4272 45.8935 46.6857 46.1335 46.8844 46.3225C47.3556 45.9986 47.7841 45.7004 48.17 45.4279C48.5572 45.1279 48.9167 44.8265 49.2487 44.5239C50.6776 43.2212 51.4049 41.8446 51.4305 40.3941C51.4705 38.9305 50.7866 37.4265 49.3786 35.8821C48.5102 34.9294 47.6316 34.1975 46.7427 33.6864C45.8539 33.1752 44.9686 32.8854 44.087 32.817C43.2197 32.7355 42.3705 32.8621 41.5393 33.197C40.7094 33.5042 39.9048 34.0131 39.1253 34.7237C38.88 34.9473 38.6333 35.1986 38.3854 35.4775C38.1387 35.7288 37.8974 36.0149 37.6613 36.3358Z" fill="#F54286"/>
<path d="M73.4892 31.7962C71.8683 32.4242 70.2955 32.6355 68.7707 32.4303C67.2642 32.218 65.9194 31.6393 64.7364 30.6942C63.5463 29.731 62.6409 28.448 62.02 26.8453C61.3991 25.2426 61.2004 23.6753 61.4238 22.1435C61.6655 20.6047 62.2735 19.2276 63.248 18.0122C64.2224 16.7969 65.511 15.8788 67.1136 15.2579C68.6799 14.6512 70.189 14.4645 71.6409 14.698C73.111 14.9244 74.4194 15.5172 75.566 16.4763C76.7055 17.4173 77.5857 18.6891 78.2066 20.2918C78.7004 21.5667 78.9208 22.8113 78.8677 24.0258C78.8327 25.2333 78.5774 26.3585 78.1018 27.4015C77.6191 28.4264 76.9818 29.3226 76.19 30.0901C75.3911 30.8395 74.4909 31.4082 73.4892 31.7962ZM73.0622 30.0451C74.0092 29.6782 74.7279 29.1275 75.2183 28.3929C75.7017 27.6401 75.9491 26.7379 75.9606 25.6862C75.9721 24.6344 75.7344 23.4802 75.2476 22.2236C74.6761 20.7484 73.9636 19.5582 73.1103 18.653C72.268 17.7225 71.3572 17.1014 70.3776 16.7897C69.391 16.4598 68.3878 16.4923 67.3679 16.8874C65.9291 17.4448 64.9969 18.4448 64.5713 19.8874C64.164 21.3229 64.3413 23.0241 65.1033 24.991C65.6395 26.3752 66.3343 27.5198 67.1876 28.425C68.0522 29.305 68.9924 29.8937 70.0084 30.1913C71.0426 30.4819 72.0605 30.4332 73.0622 30.0451Z" fill="#F54286"/>
</svg>
