<svg width="715" height="335" viewBox="0 0 715 335" fill="none" xmlns="http://www.w3.org/2000/svg">
<g style="mix-blend-mode:multiply">
<path d="M391.646 251.983C489.184 212.593 573.754 167.599 631.638 126.679C660.573 106.223 682.887 86.7531 696.813 69.4761C710.678 52.2746 716.487 36.9189 711.62 24.8684C706.754 12.8179 691.911 5.80167 669.989 3.05258C647.97 0.291429 618.394 1.77634 583.368 7.15053C513.301 17.9014 421.202 44.2528 323.664 83.6425C226.125 123.032 141.555 168.026 83.6713 208.946C54.7361 229.402 32.4227 248.872 18.4964 266.149C4.6309 283.35 -1.17718 298.706 3.68925 310.757C8.55568 322.807 23.3984 329.823 45.3206 332.573C67.339 335.334 96.9155 333.849 131.941 328.475C202.008 317.724 294.107 291.372 391.646 251.983Z" stroke="#F54286" stroke-width="2"/>
</g>
</svg>
