<svg width="220" height="264" viewBox="0 0 220 264" fill="none" xmlns="http://www.w3.org/2000/svg">
<g clip-path="url(#clip0_92_231)">
<path d="M34.3664 42.3194L53.1005 41.4633C58.9866 41.1937 64.4393 42.8043 64.4393 56.2722V155.63C64.4393 169.1 58.9866 171.208 53.1005 171.478L34.3664 172.334V42.3194ZM53.6104 7.66864L3.04817 9.97923C1.36365 10.0563 0 11.5676 0 13.3569V204.437C0 206.225 1.36365 207.611 3.04817 207.534L53.6104 205.226C83.1791 203.874 98.8057 185.708 98.8057 152.694V56.0593C98.8057 23.0496 83.1791 6.31756 53.6104 7.66864Z" fill="black"/>
<path d="M150.499 49.3982C150.499 35.7481 157.16 33.6901 162.964 33.4205C168.767 33.1509 175.433 34.5894 175.433 48.2396V151.177C175.433 164.829 168.767 166.887 162.964 167.157C157.16 167.426 150.499 165.988 150.499 152.338V49.3982ZM162.964 0.0841968C131.568 1.54326 113.562 20.8323 113.562 53.0015V152.165C113.562 184.338 131.568 201.954 162.964 200.493C194.358 199.034 212.368 179.745 212.368 147.569V48.4083C212.368 16.2368 194.358 -1.37693 162.964 0.0841968Z" fill="black"/>
<mask id="mask0_92_231" style="mask-type:alpha" maskUnits="userSpaceOnUse" x="0" y="215" width="220" height="49">
<path d="M0 215.464H220V263.175H0V215.464Z" fill="white"/>
</mask>
<g mask="url(#mask0_92_231)">
<path d="M3.12006 225.97C1.39474 226.055 0 227.718 0 229.691V259.757C0 261.731 1.39474 263.258 3.12006 263.173L216.881 252.669C218.604 252.582 220 250.916 220 248.948V218.88C220 216.907 218.604 215.383 216.881 215.466L157.92 218.362L3.12006 225.97Z" fill="black"/>
</g>
</g>
<defs>
<clipPath id="clip0_92_231">
<rect width="220" height="264" fill="white"/>
</clipPath>
</defs>
</svg>
