<svg width="49" height="31" viewBox="0 0 49 31" fill="none" xmlns="http://www.w3.org/2000/svg">
<path d="M1.35509e-06 15.4996C1.32211e-06 15.8768 0.228437 16.3782 0.460286 16.6217L13.5269 30.4909C14.137 31.1208 15.1254 31.1937 15.8363 30.5546C16.4721 29.9827 16.488 28.8679 15.9001 28.247L5.41134 17.1315L47.3668 17.1316C48.2691 17.1316 49 16.4009 49 15.5001C49 14.5987 48.2685 13.8686 47.3668 13.8686L5.41134 13.8686L15.9001 2.75311C16.488 2.13227 16.4464 1.04473 15.8363 0.44613C15.1926 -0.186092 14.1273 -0.129756 13.5269 0.509864L0.460287 14.3784C0.0763297 14.7546 0.00625749 15.1171 1.35505e-06 15.5L1.35509e-06 15.4996Z" fill="white"/>
</svg>
