<svg width="49" height="31" viewBox="0 0 49 31" fill="none" xmlns="http://www.w3.org/2000/svg">
<path d="M49 15.5004C49 15.1232 48.7716 14.6218 48.5397 14.3783L35.4731 0.509118C34.863 -0.12083 33.8746 -0.19367 33.1637 0.445383C32.5279 1.01729 32.512 2.13206 33.0999 2.75295L43.5887 13.8684H1.63321C0.730856 13.8684 0 14.5991 0 15.4999C0 16.4013 0.731454 17.1314 1.63321 17.1314H43.5887L33.0999 28.2469C32.512 28.8677 32.5536 29.9553 33.1637 30.5539C33.8074 31.1861 34.8727 31.1298 35.4731 30.4901L48.5397 16.6216C48.9237 16.2454 48.9937 15.8829 49 15.5V15.5004Z" fill="white"/>
</svg>
