<svg width="54" height="35" viewBox="0 0 54 35" fill="none" xmlns="http://www.w3.org/2000/svg">
<path fill-rule="evenodd" clip-rule="evenodd" d="M-7.64949e-07 17.5C-7.87488e-07 16.9844 0.203174 16.4899 0.564829 16.1253C0.926483 15.7607 1.41699 15.5558 1.92845 15.5558L47.4128 15.5558L35.2752 3.3231C34.9131 2.95804 34.7096 2.46291 34.7096 1.94663C34.7096 1.43035 34.9131 0.935217 35.2752 0.570155C35.6373 0.205092 36.1284 2.23547e-06 36.6405 2.21309e-06C37.1526 2.1907e-06 37.6437 0.205092 38.0059 0.570154L53.4334 16.1235C53.613 16.3041 53.7555 16.5187 53.8527 16.7549C53.95 16.9911 54 17.2443 54 17.5C54 17.7557 53.95 18.0089 53.8527 18.2451C53.7555 18.4813 53.613 18.6959 53.4334 18.8765L38.0059 34.4298C37.6437 34.7949 37.1526 35 36.6405 35C36.1284 35 35.6373 34.7949 35.2752 34.4298C34.9131 34.0648 34.7096 33.5696 34.7096 33.0534C34.7096 32.5371 34.9131 32.042 35.2752 31.6769L47.4128 19.4442L1.92845 19.4442C1.41699 19.4442 0.926483 19.2393 0.564829 18.8747C0.203174 18.5101 -7.4241e-07 18.0156 -7.64949e-07 17.5Z" fill="#F54286"/>
</svg>
